<svg xmlns="http://www.w3.org/2000/svg" viewBox="0 0 176 176"><path d="M155.706 176h-.005l-65.411-.125H20.294a2.5 2.5 0 01-2.5-2.5V60.904a2.5 2.5 0 012.5-2.5h34.911V2.5a2.5 2.5 0 012.5-2.5h98a2.5 2.5 0 012.5 2.5v171a2.502 2.502 0 01-2.499 2.5zm-62.912-5.12l60.411.115V5h-93v53.404h30.089a2.5 2.5 0 012.5 2.5V170.88zm-70-.005h65V63.404h-65v107.471zm57.282-16.241H60.297a2.5 2.5 0 01-2.5-2.5v-11.575a2.5 2.5 0 012.5-2.5h19.779a2.5 2.5 0 012.5 2.5v11.575a2.5 2.5 0 01-2.5 2.5zm-17.279-5h14.779v-6.575H62.797v6.575zm-12.505 5H30.513a2.5 2.5 0 01-2.5-2.5v-11.575a2.5 2.5 0 012.5-2.5h19.779a2.5 2.5 0 012.5 2.5v11.575a2.5 2.5 0 01-2.5 2.5zm-17.279-5h14.779v-6.575H33.013v6.575zm105.701 3.716h-9.563a2.5 2.5 0 01-2.5-2.5v-10.392a2.5 2.5 0 012.5-2.5h9.563a2.5 2.5 0 012.5 2.5v10.392a2.5 2.5 0 01-2.5 2.5zm-7.062-5h4.563v-5.392h-4.563v5.392zm-20.517 5h-9.563a2.5 2.5 0 01-2.5-2.5v-10.392a2.5 2.5 0 012.5-2.5h9.563a2.5 2.5 0 012.5 2.5v10.392a2.5 2.5 0 01-2.5 2.5zm-7.063-5h4.563v-5.392h-4.563v5.392zm-23.996-16.333H60.297a2.5 2.5 0 01-2.5-2.5v-11.575a2.5 2.5 0 012.5-2.5h19.779a2.5 2.5 0 012.5 2.5v11.575a2.5 2.5 0 01-2.5 2.5zm-17.279-5h14.779v-6.575H62.797v6.575zm-12.505 5H30.513a2.5 2.5 0 01-2.5-2.5v-11.575a2.5 2.5 0 012.5-2.5h19.779a2.5 2.5 0 012.5 2.5v11.575a2.5 2.5 0 01-2.5 2.5zm-17.279-5h14.779v-6.575H33.013v6.575zm105.701 1.422h-9.563a2.5 2.5 0 01-2.5-2.5v-10.391a2.5 2.5 0 012.5-2.5h9.563a2.5 2.5 0 012.5 2.5v10.391a2.5 2.5 0 01-2.5 2.5zm-7.062-5h4.563v-5.391h-4.563v5.391zm-20.517 5h-9.563a2.5 2.5 0 01-2.5-2.5v-10.391a2.5 2.5 0 012.5-2.5h9.563a2.5 2.5 0 012.5 2.5v10.391a2.5 2.5 0 01-2.5 2.5zm-7.063-5h4.563v-5.391h-4.563v5.391zm-23.996-14.04H60.297a2.5 2.5 0 01-2.5-2.5V95.324a2.5 2.5 0 012.5-2.5h19.779a2.5 2.5 0 012.5 2.5v11.575a2.5 2.5 0 01-2.5 2.5zm-17.279-5h14.779v-6.575H62.797v6.575zm-12.505 5H30.513a2.5 2.5 0 01-2.5-2.5V95.324a2.5 2.5 0 012.5-2.5h19.779a2.5 2.5 0 012.5 2.5v11.575a2.5 2.5 0 01-2.5 2.5zm-17.279-5h14.779v-6.575H33.013v6.575zm105.701-.871h-9.563a2.5 2.5 0 01-2.5-2.5V90.637a2.5 2.5 0 012.5-2.5h9.563a2.5 2.5 0 012.5 2.5v10.392a2.5 2.5 0 01-2.5 2.499zm-7.062-5h4.563v-5.392h-4.563v5.392zm-20.517 5h-9.563a2.5 2.5 0 01-2.5-2.5V90.637a2.5 2.5 0 012.5-2.5h9.563a2.5 2.5 0 012.5 2.5v10.392a2.5 2.5 0 01-2.5 2.499zm-7.063-5h4.563v-5.392h-4.563v5.392zM80.076 86.781H60.297a2.5 2.5 0 01-2.5-2.5V72.706a2.5 2.5 0 012.5-2.5h19.779a2.5 2.5 0 012.5 2.5v11.576a2.5 2.5 0 01-2.5 2.499zm-17.279-5h14.779v-6.576H62.797v6.576zm-12.505 5H30.513a2.5 2.5 0 01-2.5-2.5V72.706a2.5 2.5 0 012.5-2.5h19.779a2.5 2.5 0 012.5 2.5v11.576a2.5 2.5 0 01-2.5 2.499zm-17.279-5h14.779v-6.576H33.013v6.576zm105.701-3.164h-9.563a2.5 2.5 0 01-2.5-2.5V65.726a2.5 2.5 0 012.5-2.5h9.563a2.5 2.5 0 012.5 2.5v10.391a2.5 2.5 0 01-2.5 2.5zm-7.062-5h4.563v-5.391h-4.563v5.391zm-20.517 5h-9.563a2.5 2.5 0 01-2.5-2.5V65.726a2.5 2.5 0 012.5-2.5h9.563a2.5 2.5 0 012.5 2.5v10.391a2.5 2.5 0 01-2.5 2.5zm-7.063-5h4.563v-5.391h-4.563v5.391zm34.642-19.91h-9.563a2.5 2.5 0 01-2.5-2.5V40.815a2.5 2.5 0 012.5-2.5h9.563a2.5 2.5 0 012.5 2.5v10.392a2.5 2.5 0 01-2.5 2.5zm-7.062-5h4.563v-5.392h-4.563v5.392zm-20.517 5h-9.563a2.5 2.5 0 01-2.5-2.5V40.815a2.5 2.5 0 012.5-2.5h9.563a2.5 2.5 0 012.5 2.5v10.392a2.5 2.5 0 01-2.5 2.5zm-7.063-5h4.563v-5.392h-4.563v5.392zm-20.517 5h-9.563a2.5 2.5 0 01-2.5-2.5V40.815a2.5 2.5 0 012.5-2.5h9.563a2.5 2.5 0 012.5 2.5v10.392a2.5 2.5 0 01-2.5 2.5zm-7.062-5h4.563v-5.392h-4.563v5.392zm62.221-19.912h-9.563a2.5 2.5 0 01-2.5-2.5V15.904a2.5 2.5 0 012.5-2.5h9.563a2.5 2.5 0 012.5 2.5v10.392a2.5 2.5 0 01-2.5 2.499zm-7.062-5h4.563v-5.392h-4.563v5.392zm-20.517 5h-9.563a2.5 2.5 0 01-2.5-2.5V15.904a2.5 2.5 0 012.5-2.5h9.563a2.5 2.5 0 012.5 2.5v10.392a2.5 2.5 0 01-2.5 2.499zm-7.063-5h4.563v-5.392h-4.563v5.392zm-20.517 5h-9.563a2.5 2.5 0 01-2.5-2.5V15.904a2.5 2.5 0 012.5-2.5h9.563a2.5 2.5 0 012.5 2.5v10.392a2.5 2.5 0 01-2.5 2.499zm-7.062-5h4.563v-5.392h-4.563v5.392z"/></svg>