<svg height="512" viewBox="0 0 64 64" width="512" xmlns="http://www.w3.org/2000/svg"><path d="M46.681 13.92l-.993-.248A56.022 56.022 0 0032.106 12h-.212c-4.579 0-9.14.562-13.582 1.672l-.993.248a14.994 14.994 0 00-.27 2.104L21 18l3.229-.923A28.034 28.034 0 0131.922 16h.157c2.602 0 5.191.363 7.692 1.077L43 18l3.951-1.975a15.158 15.158 0 00-.27-2.105z"/><path d="M12 63h40a1 1 0 001-1V46.432a6.963 6.963 0 00-4.941-6.69l-6.944-2.137A14.006 14.006 0 0045.677 30H47c1.654 0 3-1.346 3-3v-4a2.996 2.996 0 00-2-2.816V17c0-8.822-7.178-16-16-16S16 8.178 16 17v3.184A2.996 2.996 0 0014 23v4c0 1.654 1.346 3 3 3h1.324a14.003 14.003 0 004.562 7.605l-6.944 2.137A6.962 6.962 0 0011 46.432V62a1 1 0 001 1zm1-7h5v5h-5zm33 5v-5h5v5zm5-14.568V54h-5v-4h-2v11H31v-6.565L45.383 41.01l2.088.642A4.976 4.976 0 0151 46.432zM31 45h2c3.41 0 6.255-2.453 6.872-5.686l3.307 1.018L32 50.766 20.821 40.332l3.307-1.018C24.745 42.547 27.59 45 31 45zm-4.651-5.2a13.906 13.906 0 0011.302 0C36.926 41.667 35.121 43 33 43h-2c-2.121 0-3.926-1.333-4.651-3.2zM48 27c0 .551-.449 1-1 1h-1.035c.023-.331.035-.664.035-1v-5h1c.551 0 1 .449 1 1zM18.201 14.731l.354-.088A54.976 54.976 0 0131.894 13h.212c4.493 0 8.981.552 13.339 1.642l.354.088c.038.232.08.463.107.698l-3.005 1.503-2.856-.816A29.017 29.017 0 0032.079 15h-.157c-2.694 0-5.375.375-7.967 1.116l-2.855.816-3.005-1.503c.026-.236.068-.466.106-.698zM32 3c6.166 0 11.402 4.011 13.265 9.557A57.07 57.07 0 0032.106 11h-.212c-4.429 0-8.85.535-13.159 1.557C20.598 7.011 25.834 3 32 3zM17 28c-.551 0-1-.449-1-1v-4c0-.551.449-1 1-1h1v5c0 .336.012.669.035 1zm3-1v-6a1 1 0 00-1-1h-1v-2.382l2.553 1.276c.224.112.481.135.722.067l3.229-.923A27.05 27.05 0 0131.921 17h.157c2.508 0 5.004.35 7.417 1.039l3.229.923a1.012 1.012 0 00.723-.067L46 17.618V20h-1a1 1 0 00-1 1v6c0 6.617-5.383 12-12 12s-12-5.383-12-12zm-3.471 14.652l2.088-.642 11.918 11.123-1.217 1.136A.999.999 0 0029 54v7h-9V50h-2v4h-5v-7.568a4.976 4.976 0 013.529-4.78z"/><path d="M33 57h2v2h-2zm0-4h2v2h-2z"/></svg>