<svg height="512" width="512" xmlns="http://www.w3.org/2000/svg"><path d="M230.517 97.176h50.967c4.142 0 7.5-3.357 7.5-7.5s-3.358-7.5-7.5-7.5h-50.967c-4.142 0-7.5 3.357-7.5 7.5s3.358 7.5 7.5 7.5z"/><path d="M383.501 310.973h-69.916a.85.85 0 01-.525-.791v-29.775c21.447-15.634 38.895-38.204 40.857-64.841l.135-1.828 7.843-.871a23.33 23.33 0 0020.777-23.212V78.114c0-12.097-9.841-21.938-21.938-21.938h-8.557C337.271 22.607 303.72 0 265.781 0h-19.562c-38.286 0-71.644 22.952-86.397 56.176h-8.557c-12.097 0-21.938 9.842-21.938 21.938v111.54a23.33 23.33 0 0020.777 23.212l7.844.871.135 1.828c1.962 26.639 19.39 49.193 40.857 64.841v29.775a.862.862 0 01-.527.791h-69.915c-36.334 0-65.895 29.561-65.895 65.895v124.215c0 6.021 4.898 10.918 10.918 10.918h364.958c6.02 0 10.918-4.897 10.918-10.918V376.867c0-36.334-29.561-65.894-65.896-65.894zm-64.957 47.97c-.122.17-.237.346-.345.528-6.209 9.418-14.641 17.503-24.44 23.294l-4.507-8.984c17.054-10.293 28.421-27.995 30.689-47.809h10.071c-1.141 11.837-5.069 23.082-11.468 32.971zm-82.126 21.044c12.639 4.037 26.512 4.04 39.164-.001l4.544 9.059c-15.383 5.265-32.685 5.328-48.253.001zM360.24 197.958l-5.068.563 1.09-14.805c3.281.537 5.133.267 11.41.339v5.6a8.344 8.344 0 01-7.432 8.303zm7.433-28.903h-7.227c-5.95 0-10.79-4.841-10.79-10.79v-25.719a22.67 22.67 0 00-1.367-7.774h10.95c4.65 0 8.433 3.783 8.433 8.434v35.849zM246.219 15h19.562c5.93 0 11.795.654 17.53 1.951l-3.264 4.896a8.664 8.664 0 01-7.226 3.867h-33.643a8.668 8.668 0 01-7.227-3.867l-3.264-4.896A79.395 79.395 0 01246.219 15zm-94.954 56.176h131.878c4.142 0 7.5-3.357 7.5-7.5s-3.358-7.5-7.5-7.5H176.555a79.929 79.929 0 0137.373-34.324l5.543 8.315a23.637 23.637 0 0019.708 10.547h33.643a23.636 23.636 0 0019.707-10.547l5.543-8.315a79.919 79.919 0 0137.373 34.324h-17.302c-4.142 0-7.5 3.357-7.5 7.5s3.358 7.5 7.5 7.5h42.592a6.945 6.945 0 016.938 6.938v33.227a23.322 23.322 0 00-8.433-1.57H152.76a23.3 23.3 0 00-8.433 1.57V78.114a6.945 6.945 0 016.938-6.938zm11.079 61.37v25.719c0 5.949-4.84 10.79-10.79 10.79h-7.227v-35.85c0-4.65 3.783-8.434 8.433-8.434h10.951a22.653 22.653 0 00-1.367 7.775zm-10.585 65.412a8.347 8.347 0 01-7.433-8.304v-5.6c6.344-.074 8.145.195 11.411-.339l1.09 14.806zm21.364 17.465l65.533 7.278a157.458 157.458 0 0034.688 0l15.01-1.667a7.5 7.5 0 10-1.656-14.908l-15.01 1.667a142.376 142.376 0 01-31.377 0l-68.319-7.588-1.779-24.155c4.416-4.631 7.131-10.897 7.131-17.786v-25.719c0-4.287 3.488-7.774 7.774-7.774h141.763c4.287 0 7.775 3.487 7.775 7.774v25.719c0 6.889 2.715 13.155 7.131 17.786l-1.779 24.155-17.929 1.991a7.499 7.499 0 00-6.626 8.282c.457 4.116 4.169 7.091 8.282 6.626l15.144-1.682c-3.813 41.542-56.986 72.29-82.877 72.29-27.57.001-79.186-32.051-82.879-72.289zM256 302.713c12.042 0 27.341-4.787 42.061-12.812v20.281c0 5.448 2.784 10.332 7.07 13.196-2.531 26.34-24.803 44.693-49.169 44.693-27.345 0-46.857-21.429-49.092-44.694 4.285-2.864 7.069-7.748 7.069-13.196V289.9c14.72 8.026 30.019 12.813 42.061 12.813zm-63.939 23.26c2.268 19.813 13.635 37.516 30.688 47.809l-4.507 8.985c-9.835-5.812-18.286-13.934-24.493-23.375a7.796 7.796 0 00-.253-.387c-6.423-9.904-10.365-21.172-11.507-33.032zM132.843 472h-55.24v-10h55.24zm0-25h-55.24v-10h55.24zm-55.24 40h55.24v10h-55.24zm125.923-12.363c0-13.002 21.55-27.488 52.474-27.488s52.473 14.486 52.473 27.488c0 8.595-8.603 17.095-22.542 22.363H226.07c-13.94-5.268-22.544-13.768-22.544-22.363zM364.157 497h-50.441c6.309-6.537 9.757-14.206 9.757-22.363 0-23.825-29.638-42.488-67.473-42.488s-67.474 18.663-67.474 42.488c0 8.157 3.448 15.826 9.758 22.363h-50.441v-89.381c0-4.143-3.358-7.5-7.5-7.5s-7.5 3.357-7.5 7.5V422h-55.24v-21.524l46.174-12.373c4.001-1.072 6.375-5.185 5.303-9.186s-5.184-6.377-9.186-5.303l-42.292 11.332v-8.08c0-28.063 22.832-50.895 50.895-50.895h38.433c.915 11.467 4.002 22.497 9.062 32.612l-21.952 5.882a7.501 7.501 0 003.882 14.489l26.285-7.043c35.777 48.008 107.593 48.293 143.584 0l106.605 28.565V422h-55.24v-14.381c0-4.143-3.358-7.5-7.5-7.5s-7.5 3.357-7.5 7.5V497zm70.24-50h-55.24v-10h55.24zm-55.24 15h55.24v10h-55.24zm55.24 35h-55.24v-10h55.24zm0-112.053l-98.39-26.363c5.06-10.115 8.147-21.145 9.062-32.612h38.432c28.064 0 50.896 22.831 50.896 50.895z"/><path d="M288.624 472.074a7.5 7.5 0 00-7.5-7.5h-50.247c-4.142 0-7.5 3.357-7.5 7.5s3.358 7.5 7.5 7.5h50.247a7.5 7.5 0 007.5-7.5z"/></svg>