<svg height="512pt" viewBox="0 0 512 512" width="512pt" xmlns="http://www.w3.org/2000/svg"><path d="M474.414 122.438l24.832-24.829a15.008 15.008 0 003.48-15.757 14.999 14.999 0 00-12.828-9.797l-46.066-3.887-3.887-46.066a14.994 14.994 0 00-9.793-12.825 14.993 14.993 0 00-15.757 3.48l-24.832 24.829C349.406 12.965 303.493 0 256 0 187.621 0 123.332 26.629 74.98 74.98 26.63 123.332 0 187.621 0 256s26.629 132.668 74.98 181.02C123.332 485.37 187.621 512 256 512s132.668-26.629 181.02-74.98C485.37 388.668 512 324.379 512 256c0-47.492-12.965-93.402-37.586-133.563zM415 83.311A15.006 15.006 0 00428.688 97l26.503 2.234-35.875 35.875-39.125-3.3-3.3-39.125 35.875-35.875zM307 256c0 28.121-22.879 51-51 51s-51-22.879-51-51 22.879-51 51-51a50.655 50.655 0 0123.848 5.938l-34.453 34.457c-5.86 5.855-5.86 15.351 0 21.21C248.32 269.535 252.16 271 256 271s7.68-1.465 10.605-4.395l34.457-34.453A50.655 50.655 0 01307 256zm-5.348-66.867C288.645 180.227 272.922 175 256 175c-44.664 0-81 36.336-81 81s36.336 81 81 81 81-36.336 81-81c0-16.922-5.227-32.645-14.133-45.652l42.828-42.828C385.262 191.73 397 222.52 397 256c0 77.746-63.254 141-141 141s-141-63.254-141-141 63.254-141 141-141c33.48 0 64.27 11.738 88.48 31.305zm114.153 226.672C373.12 458.492 316.367 482 256 482s-117.121-23.508-159.805-66.195C53.508 373.12 30 316.367 30 256S53.508 138.879 96.195 96.195C138.88 53.508 195.633 30 256 30c39.492 0 77.746 10.145 111.672 29.477l-16.918 16.918a14.998 14.998 0 00-4.344 11.867l2.02 23.933C321.762 94.992 290.027 85 256 85c-94.29 0-171 76.71-171 171s76.71 171 171 171 171-76.71 171-171c0-34.027-9.992-65.762-27.195-92.43l23.933 2.02c.422.031.844.05 1.262.05.07 0 .145-.007.215-.011.2 0 .394-.016.594-.027.324-.02.652-.04.972-.079.2-.027.399-.058.598-.09.316-.05.629-.109.941-.18.2-.046.395-.097.59-.148.305-.082.606-.175.906-.277a13 13 0 001.45-.582c.183-.082.367-.164.55-.258.29-.148.57-.312.848-.476.168-.102.336-.196.5-.297.297-.195.582-.406.867-.621.133-.102.27-.192.399-.297.406-.328.8-.676 1.175-1.05l16.918-16.919C471.855 178.254 482 216.508 482 256c0 60.367-23.508 117.121-66.195 159.805zm0 0"/></svg>