<svg xmlns="http://www.w3.org/2000/svg" width="368.625" height="368.625"><path d="M356.125 50.318H12.5c-6.903 0-12.5 5.597-12.5 12.5v242.988c0 6.902 5.597 12.5 12.5 12.5h343.625c6.902 0 12.5-5.598 12.5-12.5V62.818c0-6.902-5.598-12.5-12.5-12.5zm-12.5 242.989H25V75.318h318.625v217.989z"/><path d="M57.755 134.201l120 73.937c2.01 1.239 4.283 1.858 6.557 1.858s4.547-.619 6.557-1.858l120-73.937c5.877-3.621 7.707-11.322 4.086-17.199s-11.324-7.707-17.199-4.085l-113.444 69.896-113.443-69.896c-5.875-3.619-13.576-1.793-17.199 4.085-3.622 5.876-1.793 13.578 4.085 17.199z"/></svg>