<svg height="512" viewBox="0 0 24 24" width="512" xmlns="http://www.w3.org/2000/svg"><path d="M22.5 18h-21C.673 18 0 17.327 0 16.5v-13C0 2.673.673 2 1.5 2h21c.827 0 1.5.673 1.5 1.5v13c0 .827-.673 1.5-1.5 1.5zM1.5 3a.5.5 0 00-.5.5v13a.5.5 0 00.5.5h21a.5.5 0 00.5-.5v-13a.5.5 0 00-.5-.5z"/><path d="M12 3a.5.5 0 01-.5-.5v-2a.5.5 0 011 0v2a.5.5 0 01-.5.5zm0 21a.5.5 0 01-.5-.5v-6a.5.5 0 011 0v6a.5.5 0 01-.5.5z"/><path d="M16.5 24a.5.5 0 01-.277-.084l-4.5-3a.5.5 0 11.554-.832l4.5 3A.5.5 0 0116.5 24z"/><path d="M7.5 24a.5.5 0 01-.278-.916l4.5-3a.499.499 0 11.554.832l-4.5 3A.489.489 0 017.5 24zm0-10a.5.5 0 01-.354-.853l3.5-3.5a.499.499 0 01.577-.094l1.678.839 3.245-3.245a.5.5 0 01.707.707l-3.5 3.5a.504.504 0 01-.577.094l-1.678-.839-3.245 3.245A.498.498 0 017.5 14z"/><path d="M16.5 11a.5.5 0 01-.5-.5V8h-2.5a.5.5 0 010-1h3a.5.5 0 01.5.5v3a.5.5 0 01-.5.5z"/></svg>